<?xml version="1.0" standalone="no"?>
<!DOCTYPE svg PUBLIC "-//W3C//DTD SVG 20010904//EN"
 "http://www.w3.org/TR/2001/REC-SVG-20010904/DTD/svg10.dtd">
<svg version="1.0" xmlns="http://www.w3.org/2000/svg"
 width="260.000000pt" height="260.000000pt" viewBox="0 0 260.000000 260.000000"
 preserveAspectRatio="xMidYMid meet">
<metadata>
Created by potrace 1.11, written by Peter Selinger 2001-2013
</metadata>
<g transform="translate(0.000000,260.000000) scale(0.100000,-0.100000)"
fill="#000000" stroke="none">
<path d="M759 2312 c-19 -2 -30 -13 -44 -45 -10 -23 -26 -60 -36 -82 -10 -22
-86 -191 -168 -375 l-149 -335 91 -3 c50 -1 96 -1 103 2 6 2 27 43 45 90 l34
86 196 0 195 0 23 -57 c13 -32 30 -73 38 -90 l14 -33 99 0 c55 0 100 4 100 9
0 7 -12 35 -85 196 -12 28 -81 183 -154 345 l-131 295 -73 0 c-39 0 -84 -1
-98 -3z m145 -371 c31 -74 56 -136 56 -138 0 -2 -58 -3 -129 -3 l-130 0 51
123 c86 209 79 195 88 172 4 -11 33 -81 64 -154z"/>
<path d="M1483 2310 c-17 -5 -18 -24 -18 -422 l0 -418 97 0 98 0 2 251 3 251
75 -92 c82 -101 221 -269 278 -339 21 -24 41 -50 45 -57 6 -10 32 -14 91 -14
l83 0 1 420 c0 383 -1 420 -17 421 -18 1 -88 1 -141 0 l-35 -1 1 -242 c0 -134
-1 -246 -3 -250 -2 -5 -28 21 -56 56 -29 36 -121 149 -206 253 l-154 188 -62
0 c-35 0 -72 -2 -82 -5z"/>
<path d="M379 1108 c0 -13 -1 -202 -2 -420 l-2 -398 30 -1 c57 -1 160 3 164 6
2 2 3 115 3 251 0 135 3 243 8 238 5 -5 45 -54 90 -109 45 -55 96 -118 114
-140 18 -22 68 -83 111 -135 43 -52 83 -99 90 -105 7 -5 34 -9 61 -8 27 0 61
2 77 2 l27 1 0 420 0 420 -98 0 -98 0 1 -250 c0 -137 0 -250 -2 -250 -1 0
-139 166 -278 335 -18 22 -56 68 -84 103 l-52 62 -79 0 c-76 0 -80 -1 -81 -22z"/>
<path d="M1570 708 l0 -423 320 1 c176 0 322 3 325 6 6 5 8 60 6 123 l-1 31
-217 -1 c-120 -1 -223 0 -228 2 -7 2 -11 41 -10 96 l0 92 180 2 c99 0 187 2
195 2 12 1 15 16 15 76 1 73 0 75 -25 76 -14 0 -101 1 -195 2 l-169 2 -1 88
-1 87 100 1 c56 0 155 1 221 2 l120 2 2 78 2 77 -320 0 -319 0 0 -422z"/>
</g>
</svg>
