<svg style="position: absolute; width: 0; height: 0; overflow: hidden;" version="1.1" xmlns="http://www.w3.org/2000/svg" xmlns:xlink="http://www.w3.org/1999/xlink">
    <defs>
        <symbol id="mirror" viewBox="0 0 250.44 250.44">
            <path d="M139.622,194.152c47.016-6.988,83.208-47.612,83.208-96.54C222.83,43.788,179.042,0,125.218,0
				C71.394,0,27.61,43.792,27.61,97.612c0,22.296,7.564,42.828,20.192,59.28v7.48c-2.936,1.476-4.828,3.396-4.828,5.812
				c0,0.492,0.1,0.956,0.244,1.412c-0.132,0.548-0.244,1.1-0.244,1.684v67.7c0,6.208,12.092,9.46,24.04,9.46
				c8.96,0,18-1.828,21.964-5.36h88.604v-1.588c0-6.34-4.848-11.5-10.808-11.5h-10.388c-0.66-4.524-5.884-7.584-9.708-8.348
				c-5.352-1.072-12.076-3.612-13.4-7.26c-0.524-1.436-0.532-8.824-0.372-13.752C136.806,200.86,139.438,197.744,139.622,194.152z
				 M47.798,150.088c-10.192-14.984-16.22-33.024-16.22-52.476c0-51.636,42.008-93.644,93.64-93.644
				c51.636,0,93.644,42.008,93.644,93.644c0,51.632-42.008,93.64-93.644,93.64c-12.06,0-23.572-2.328-34.168-6.5v-8.796
				c10.472,4.608,22.004,7.224,34.168,7.224c47.184,0,85.572-38.388,85.572-85.572c0-47.184-38.388-85.572-85.572-85.572
				c-47.184,0-85.572,38.388-85.572,85.572c0,12.936,2.984,25.152,8.152,36.148V150.088z M117.518,202.26l0.004,0.144
				c0.168,4.924,0.168,12.516-0.364,13.976c-1.324,3.648-8.048,6.188-13.4,7.26c-3.824,0.764-9.048,3.828-9.708,8.348h-3v-42.972
				c6.556,2.46,13.432,4.248,20.564,5.252C111.834,197.568,114.094,200.464,117.518,202.26z M48.474,167.6
				c2.348,4.08,10.64,6.264,18.54,6.264c7.88,0,16.152-2.172,18.52-6.236c1.472,0.864,2.34,1.76,2.34,2.552
				c0.004,2.568-8.124,6.288-20.86,6.288s-20.864-3.72-20.864-6.284C46.15,169.384,46.994,168.476,48.474,167.6z M55.39,126.944
				l-0.072,0.004c0.268,3.74,5.296,6.564,11.692,6.564c6.688,0,11.736-2.956,11.736-6.872c0-0.036-0.004-0.204-0.012-0.432
				c2.7,1.072,4.316,2.38,4.316,3.472c0,2.228-6.248,5.46-16.036,5.46c-9.788,0-16.036-3.236-16.036-5.46
				c0-1.096,1.592-2.42,4.304-3.496v0.648L55.39,126.944z M58.454,126.688V93.516c0-4.368,3.292-7.988,7.524-8.5
				C70.726,96.4,71.73,98.492,72.99,101.12c0.46,0.956,0.956,1.988,1.684,3.576c0.256,6.204,0.884,21.364,0.896,21.94
				c0,1.544-3.256,3.696-8.56,3.696c-5.12,0-8.416-2.104-8.524-3.612L58.454,126.688z M67.014,138.316
				c6.072,0,12.372-1.292,16.036-3.744v30.66c0,2.228-6.248,5.46-16.036,5.46c-9.788,0-16.036-3.232-16.036-5.46v-30.66
				C54.642,137.02,60.942,138.316,67.014,138.316z M87.878,240.98c0,2.564-8.128,6.284-20.864,6.284
				c-12.736,0-20.864-3.72-20.864-6.284v-65.848c4.376,2.976,12.656,4.512,20.864,4.512s16.488-1.536,20.864-4.512V240.98z
				 M86.226,164.36v-31.912c0-0.496-0.124-0.956-0.224-1.424c0.132-0.432,0.224-0.876,0.224-1.348c0-3.172-3.192-5.5-7.628-6.94
				c-0.228-5.684-0.652-15.856-0.76-18.488l-0.144-0.592c-0.812-1.776-1.344-2.888-1.836-3.912
				c-1.28-2.664-2.292-4.768-7.376-16.988l-1.464-0.98c-6.472,0-11.736,5.264-11.736,11.736v29.272
				c-3.812,1.264-6.676,3.188-7.328,5.752c-3.856-9.572-6.032-19.992-6.032-30.928c0-45.932,37.368-83.304,83.3-83.304
				s83.304,37.368,83.304,83.304c0,45.936-37.376,83.304-83.308,83.304c-12.188,0-23.732-2.696-34.168-7.428v-0.208
				c0-0.592-0.1-1.156-0.236-1.712c0.14-0.448,0.236-0.904,0.236-1.384C91.05,167.764,89.178,165.832,86.226,164.36z
				 M146.054,226.752c2.664,0.532,6.376,2.628,7.124,5.236h-6.34v3.176h19.932c3.712,0,6.812,2.904,7.492,6.74H90.938
				c0.06-0.3,0.112-0.604,0.112-0.92v-5.816h37.924v-3.176h-31.72c0.752-2.608,4.46-4.704,7.124-5.236
				c3.136-0.628,13.528-3.148,15.76-9.288c0.78-2.144,0.692-9.84,0.6-13.528h1.88c0.964,0.156,1.96,0.248,2.988,0.248
				s2.02-0.092,2.988-0.248h1.096c-0.088,3.688-0.176,11.384,0.6,13.528C132.526,223.608,142.922,226.128,146.054,226.752z
				 M128.222,200.76h-5.228c-4.176-0.72-7.488-3.072-8.148-5.936h1.708c2.856,0.252,5.74,0.396,8.66,0.396
				c2.88,0,5.728-0.152,8.544-0.396h2.616C135.714,197.692,132.398,200.044,128.222,200.76z"/>
            <path d="M52.382,223.708c-0.628,0-1.136,0.508-1.136,1.136v14.532c0,0.628,0.508,1.136,1.136,1.136
				c0.628,0,1.136-0.508,1.136-1.136v-14.532C53.518,224.212,53.01,223.708,52.382,223.708z"/>
            <path d="M52.382,180.992c-0.628,0-1.136,0.508-1.136,1.136v36.896c0,0.628,0.508,1.136,1.136,1.136
				c0.628,0,1.136-0.508,1.136-1.136v-36.896C53.518,181.5,53.01,180.992,52.382,180.992z"/>
            <path d="M55.926,164.88c0,0,0.004,0,0.008,0c0.624-0.004,1.132-0.516,1.128-1.144c-0.028-4.392-0.024-8.876-0.02-13.336
				l0.004-4.732c0-0.628-0.508-1.136-1.136-1.136s-1.136,0.508-1.136,1.136v4.728c-0.004,4.468-0.008,8.956,0.02,13.356
				C54.798,164.376,55.302,164.88,55.926,164.88z"/>
            <path d="M153.654,58.668c0.292,0,0.584-0.112,0.808-0.336l8.996-9.12c0.44-0.448,0.436-1.164-0.008-1.604
				c-0.448-0.444-1.168-0.436-1.604,0.008l-8.996,9.12c-0.44,0.448-0.436,1.164,0.008,1.604
				C153.078,58.56,153.366,58.668,153.654,58.668z"/>
            <path d="M111.47,100.296c0.22,0.22,0.508,0.328,0.796,0.328c0.292,0,0.584-0.112,0.808-0.336l34.188-34.656
				c0.44-0.448,0.436-1.164-0.008-1.604c-0.448-0.444-1.168-0.436-1.604,0.008l-34.188,34.656
				C111.022,99.136,111.026,99.856,111.47,100.296z"/>
            <path d="M93.146,120.008c0.292,0,0.584-0.112,0.808-0.336l12.824-13c0.44-0.448,0.436-1.164-0.008-1.604
				c-0.452-0.444-1.168-0.436-1.604,0.008l-12.824,13c-0.44,0.448-0.436,1.164,0.008,1.604
				C92.57,119.896,92.858,120.008,93.146,120.008z"/>
            <path d="M129.118,60.3c0.284,0,0.572-0.108,0.792-0.324L141.562,48.6c0.448-0.436,0.456-1.156,0.016-1.604
				c-0.432-0.444-1.156-0.46-1.604-0.016l-11.652,11.376c-0.448,0.436-0.456,1.156-0.016,1.604
				C128.526,60.184,128.822,60.3,129.118,60.3z"/>
            <path d="M108.182,80.744c0.284,0,0.572-0.108,0.792-0.324l15.352-14.992c0.448-0.436,0.456-1.156,0.016-1.604
				c-0.436-0.444-1.156-0.46-1.604-0.016L107.39,78.796c-0.448,0.436-0.456,1.156-0.016,1.604
				C107.594,80.628,107.886,80.744,108.182,80.744z"/>
            <path d="M139.014,101.364c0.22,0.22,0.508,0.332,0.8,0.332s0.58-0.112,0.804-0.332l26.736-26.74c0.44-0.44,0.44-1.16,0-1.604
				c-0.44-0.44-1.16-0.444-1.604,0l-26.736,26.74C138.57,100.204,138.57,100.92,139.014,101.364z"/>
        </symbol>

        <symbol id="mascara" viewBox="0 0 234.232 234.232">
            <path d="M92.129,101.904v-1.488c1.104-0.932,1.772-2.012,1.772-3.252c0-0.624-0.508-1.132-1.132-1.132
				c-0.248,0-0.452,0.128-0.64,0.264v-2.544c0-0.52,0-2.084,0-2.404c0-5-8.324-7.696-16.16-7.696s-16.164,2.696-16.164,7.696
				c0,0.064,0.024,0.12,0.036,0.18c-0.5-0.064-1.012-0.104-1.524-0.152V35.944c1.364-1.136,2.232-2.744,2.232-4.544v-7.492
				c0-2.664-3.904-18.3-8.24-22.572c-0.784-0.768-1.588-1.192-2.404-1.252c-0.4-0.124-0.904-0.136-1.412,0.14
				c-1.188,0.656-1.716,2.524-1.716,6.056V31.4c0,1.8,0.868,3.408,2.232,4.544v55.44c-6.708,0.632-12.664,2.636-12.664,6.292
				c0,0.344,0,1.584,0,1.944v9.268c-2.616,1.34-4.308,3.072-4.308,5.264c0,0.608,0,2.336,0,2.76v88.984
				c0,5.656,10.88,8.612,21.624,8.612c10.744,0,21.624-2.956,21.624-8.612v-1.344c0.224,0.004,0.452,0.012,0.676,0.012
				c10.016,0,20.152-2.888,20.152-8.408V109.72c0-0.512,0-2.264,0-2.68C96.121,104.908,94.557,103.212,92.129,101.904z
				 M75.969,86.828c7.924,0,12.988,2.68,12.988,4.524c0,1.844-5.064,4.524-12.988,4.524c-2.284,0-4.28-0.244-6.024-0.604
				c-1.288-1.404-3.696-2.424-6.616-3.1c-0.204-0.28-0.348-0.56-0.348-0.816C62.977,89.508,68.037,86.828,75.969,86.828z
				 M70.841,98.596c1.676,0.264,3.396,0.448,5.124,0.448c4.84,0,9.852-1.036,12.988-3v3.728c-2.632,1.3-7.088,2.368-12.948,2.368
				c-1.844,0-3.48-0.144-5.024-0.332V99.62C70.981,99.268,70.913,98.932,70.841,98.596z M70.985,104.06
				c1.652,0.2,3.332,0.344,5.024,0.344c4.684,0,9.48-0.764,12.948-2.188v0.528c0,1.844-5.064,4.524-12.988,4.524
				c-1.864,0-3.48-0.192-4.984-0.452V104.06z M49.049,6.28c0-2.688,0.344-3.66,0.508-3.972l0.128,0.036c0,0,0.004,0,0.008,0
				c0.26,0,0.624,0.22,1.028,0.612c1.964,1.932,3.976,7.1,5.432,11.86l-6.456,3.416c-0.472,0.248-0.652,0.832-0.404,1.3
				c0.172,0.328,0.508,0.516,0.852,0.516c0.152,0,0.308-0.036,0.448-0.112l6.116-3.236c0.204,0.716,0.396,1.42,0.564,2.08
				l-7.576,4.004c-0.472,0.248-0.652,0.832-0.404,1.3c0.172,0.328,0.508,0.516,0.852,0.516c0.152,0,0.308-0.036,0.448-0.112
				l7.144-3.776c0.192,0.848,0.336,1.576,0.428,2.148l-8.468,4.48c-0.472,0.248-0.652,0.832-0.404,1.3
				c0.172,0.328,0.508,0.516,0.852,0.516c0.152,0,0.308-0.036,0.448-0.112l7.688-4.064v6.428c0,2.172-2.072,3.936-4.616,3.936
				s-4.616-1.764-4.616-3.936V6.28z M56.053,37.196v58.04c0,0.52,0,1.304-2.388,1.304s-2.388-0.816-2.388-1.304v-58.04
				c0.748,0.252,1.544,0.408,2.388,0.408S55.309,37.448,56.053,37.196z M49.013,94.592v0.644c0,1.332,0.6,3.572,4.652,3.572
				c4.052,0,4.652-2.24,4.652-3.572v-0.668c6.212,0.64,9.492,2.404,9.492,3.108c0,0.864-4.864,3.364-14.144,3.364
				c-9.28,0-14.144-2.5-14.144-3.364C39.521,96.972,42.821,95.232,49.013,94.592z M39.521,101.648
				c3.352,1.74,8.868,2.564,14.144,2.564s10.792-0.824,14.144-2.564v8.408c0,0.864-4.864,3.368-14.144,3.368
				c-9.28,0-14.144-2.504-14.144-3.368V101.648z M37.077,112.016c2.216,3.116,9.592,4.58,16.588,4.58
				c6.968,0,14.304-1.452,16.556-4.54c1.196,0.716,1.9,1.448,1.9,2.1c0,2.212-7.192,5.436-18.456,5.436
				c-11.26,0-18.452-3.224-18.452-5.44C35.213,113.492,35.881,112.744,37.077,112.016z M72.121,205.896
				c0,2.22-7.192,5.44-18.452,5.44s-18.452-3.224-18.452-5.44v-87.044c4.008,2.58,11.252,3.912,18.452,3.912
				s14.448-1.336,18.452-3.912V205.896z M92.949,196.16c0,2.132-6.616,5.236-16.98,5.236c-0.236,0-0.452-0.016-0.676-0.024v-84.46
				c0-0.472-0.248-1.384-0.22-1.484c0.3,0.004,0.596,0.02,0.896,0.02c6.588,0,13.208-1.256,16.98-3.68V196.16z M75.969,112.276
				c-0.42,0-0.792-0.032-1.188-0.048c-0.364-0.716-0.96-1.356-1.688-1.952c0.952,0.1,1.912,0.164,2.876,0.164
				c6.496,0,13.256-1.88,15.4-5.36c1.016,0.668,1.58,1.356,1.58,1.964C92.949,109.176,86.329,112.276,75.969,112.276z"/>
            <path d="M43.285,161.096c0,13.516,3.636,27.884,10.384,27.884s10.384-14.368,10.384-27.884s-3.636-27.884-10.384-27.884
				S43.285,147.58,43.285,161.096z M61.785,161.096c0,15.096-4.276,25.616-8.116,25.616c-3.84,0-8.116-10.52-8.116-25.616
				s4.276-25.616,8.116-25.616C57.509,135.48,61.785,146,61.785,161.096z"/>
            <path d="M201.889,200.072c-0.712-4.772-2.66-7.78-5.476-8.468c-0.328-0.08-0.66-0.12-0.992-0.136
				c-0.2-0.068-0.364-0.196-0.572-0.248l-43.384-10.608v-34.204c0-0.308,0-1.36,0-1.608c0-2.292-1.668-4.312-4.36-5.948v-29.32
				c0-0.504,0-2.128,0-2.504c0-2.904-2.888-5.012-6.896-6.332c-0.208-5.148-0.584-14.272-0.684-16.644l-0.14-0.592
				c-0.736-1.596-1.216-2.6-1.66-3.528c-1.152-2.4-2.408-5.272-7.004-16.32h-1.124c-5.928,0-10.752,4.82-10.752,10.752v26.368
				c-3.928,1.328-6.756,3.428-6.756,6.3c0,0.368,0,1.992,0,2.504v29.304c-2.704,1.64-4.36,3.668-4.36,5.964c0,0.168,0,1.228,0,1.608
				v53.152c0,5.444,9.996,8.396,20.344,8.664c-0.06,1.588-0.06,3.12,0.076,4.504c0.596,6.104,2.876,7.912,4.66,8.348l51.648,12.628
				c0.02,0.004,0.04,0.004,0.06,0.008c-0.04-0.128-0.044-0.256-0.08-0.384c0.496,0.328,1.008,0.616,1.584,0.756
				c0.404,0.096,0.804,0.144,1.216,0.144c2.484,0,5.12-1.776,7.56-5.132c2.548-3.512,4.688-8.448,6.024-13.908
				C202.153,209.736,202.533,204.364,201.889,200.072z M122.017,74.36h0.004c0-3.828,2.856-7.004,6.548-7.508
				c4.256,10.204,5.164,12.088,6.3,14.452c0.412,0.856,0.852,1.776,1.5,3.192c0.104,2.492,0.796,19.148,0.808,19.78
				c0,1.3-2.952,3.192-7.58,3.192c-4.54,0-7.456-1.82-7.552-3.124l-0.028-0.028V74.36z M118.849,104.068v0.388l0.108,0.108
				l-0.076,0.004c0.248,3.46,4.856,6.072,10.716,6.072c6.128,0,10.752-2.736,10.752-6.364c0-0.02-0.004-0.108-0.008-0.2
				c2.272,0.92,3.592,2.024,3.592,2.948c0,1.948-5.584,4.78-14.336,4.78c-8.752,0-14.336-2.832-14.336-4.78
				C115.265,106.1,116.589,104.992,118.849,104.068z M143.937,111.712v27.428c0,1.948-5.584,4.78-14.336,4.78
				c-8.752,0-14.336-2.832-14.336-4.78v-27.428c3.376,2.136,8.952,3.268,14.336,3.268
				C134.985,114.98,140.561,113.852,143.937,111.712z M113.737,142.64c2.976,2.908,9.56,4.452,15.864,4.452
				c6.308,0,12.896-1.544,15.872-4.456c1.328,0.576,2.276,1.588,2.62,2.832c-1.016,2.98-8.54,6.044-18.492,6.044
				c-9.956,0-17.484-3.068-18.492-6.044C111.453,144.22,112.405,143.216,113.737,142.64z M129.573,197.772
				c-0.608,2.484-1.02,4.928-1.272,7.264c-10.636-0.244-17.396-3.316-17.396-5.476v-49.548c3.756,2.836,10.54,4.672,18.696,4.672
				s14.936-1.836,18.696-4.672v29.828l-5.08-1.24c-1.824-0.44-4.66,0.112-8.004,5.252
				C132.905,187.396,130.901,192.344,129.573,197.772z M133.581,217.996c-0.816-0.2-1.9-1.776-2.268-5.576
				c-0.376-3.868,0.1-8.8,1.348-13.892c1.248-5.092,3.096-9.692,5.216-12.948c1.904-2.92,3.48-3.924,4.352-3.924
				c0.084,0,0.16,0.008,0.228,0.024l48.08,11.76c-0.98,0.816-1.952,1.852-2.892,3.152c-2.552,3.512-4.688,8.448-6.024,13.912
				c-1.936,7.92-1.764,14.94,0.096,19.264L133.581,217.996z M197.733,214.436c-1.24,5.068-3.196,9.612-5.508,12.8
				c-1.972,2.72-4.04,4.112-5.444,3.764c-3.08-0.752-4.62-9.36-2.08-19.752c1.24-5.072,3.196-9.612,5.508-12.796
				c1.764-2.436,3.588-3.82,4.988-3.82c0.16,0,0.312,0.02,0.46,0.056c1.44,0.352,2.596,2.54,3.092,5.856
				C199.333,204.436,198.973,209.372,197.733,214.436z"/>
        </symbol>

        <symbol id="powder" viewBox="0 0 205.465 205.465">
            <path d="M99.768,146.401c1.032-1.184,1.68-2.708,1.68-4.4c0-3.544-2.764-6.424-6.244-6.676
				c26.856-9.412,46.196-34.944,46.196-64.968c0-37.984-30.904-68.888-68.892-68.888C34.524,1.469,3.62,32.373,3.62,70.357
				c0,30.024,19.34,55.556,46.192,64.968c-3.48,0.248-6.248,3.132-6.248,6.676c0,1.688,0.648,3.216,1.68,4.4
				C20.416,149.461,0,156.757,0,167.829c0,0.72,0.16,1.408,0.328,2.096c-0.012-0.028-0.028-0.052-0.044-0.08H0v11.076
				c0,14.988,37.36,23.076,72.508,23.076s72.508-8.088,72.508-23.076v-11.06c-0.112,0.136-0.204,0.28-0.36,0.396
				c-0.008,0.004-0.016,0.012-0.02,0.02c0.228-0.796,0.384-1.604,0.384-2.444C145.016,156.757,124.604,149.461,99.768,146.401z
				 M97.48,142.001c0,1.52-1.236,2.752-2.752,2.752H71.252l5.812-5.508h17.664C96.248,139.249,97.48,140.481,97.48,142.001z
				 M7.592,70.361c0-35.796,29.12-64.92,64.916-64.92s64.92,29.124,64.92,64.92c0,35.796-29.124,64.92-64.92,64.92
				S7.592,106.157,7.592,70.361z M50.292,139.249h23.476l-5.812,5.508H50.292c-1.52,0-2.752-1.236-2.752-2.752
				C47.54,140.489,48.772,139.249,50.292,139.249z M72.508,148.725c40.392,0,68.54,10.068,68.54,19.104s-28.148,19.108-68.54,19.108
				c-40.392,0-68.54-10.072-68.54-19.108S32.116,148.725,72.508,148.725z M141.052,180.921h-0.004
				c0,9.036-28.148,19.104-68.54,19.104c-40.392,0-68.536-10.064-68.536-19.104v-5.156c10.488,9.884,40.216,15.144,68.54,15.144
				c28.324,0,58.048-5.26,68.54-15.144V180.921z"/>
            <path d="M130.404,70.361c0-31.92-25.972-57.896-57.896-57.896S14.62,38.437,14.62,70.361s25.968,57.896,57.892,57.896
				C104.436,128.257,130.404,102.281,130.404,70.361z M16.884,70.361c0-30.672,24.952-55.624,55.624-55.624
				s55.628,24.952,55.628,55.624s-24.956,55.624-55.628,55.624S16.884,101.033,16.884,70.361z"/>
            <path d="M26.344,70.361h2.264c0-15.272,6.828-29.532,18.732-39.128l-1.42-1.764C33.476,39.493,26.344,54.397,26.344,70.361z"/>
            <path d="M48.548,166.717c7.88,0,21.208-1.18,21.208-5.604c0-4.424-13.328-5.604-21.208-5.604c-7.88,0-21.212,1.18-21.212,5.604
				S40.668,166.717,48.548,166.717z M48.548,157.781c11.7,0,18.504,2.156,18.932,3.332c-0.428,1.176-7.228,3.336-18.932,3.336
				c-11.784,0-18.596-2.184-18.944-3.312C29.952,159.965,36.768,157.781,48.548,157.781z"/>
            <path d="M96.472,166.717c7.88,0,21.212-1.18,21.212-5.604c-0.004-4.424-13.336-5.604-21.212-5.604
				c-7.88,0-21.208,1.18-21.208,5.604S88.592,166.717,96.472,166.717z M96.472,157.781c11.704,0,18.508,2.156,18.936,3.332
				c-0.432,1.176-7.232,3.336-18.936,3.336c-11.78,0-18.592-2.184-18.94-3.312C77.88,159.965,84.696,157.781,96.472,157.781z"/>
            <path d="M48.548,179.409c7.88,0,21.208-1.18,21.208-5.604s-13.328-5.604-21.208-5.604c-7.88,0-21.212,1.18-21.212,5.604
				S40.668,179.409,48.548,179.409z M48.548,170.473c11.7,0,18.504,2.16,18.932,3.336c-0.428,1.176-7.232,3.336-18.932,3.336
				c-11.78,0-18.596-2.188-18.944-3.312C29.952,172.661,36.768,170.473,48.548,170.473z"/>
            <path d="M96.472,179.409c7.88,0,21.212-1.18,21.212-5.604s-13.336-5.604-21.212-5.604c-7.88,0-21.208,1.18-21.208,5.604
				S88.592,179.409,96.472,179.409z M96.472,170.473c11.704,0,18.504,2.16,18.936,3.336c-0.436,1.176-7.236,3.336-18.936,3.336
				c-11.776,0-18.592-2.188-18.94-3.312C77.88,172.661,84.696,170.473,96.472,170.473z"/>
            <path d="M199.48,50.233c1.336-2.356,2.716-4.792,3.812-7.376c1.78-4.2,3.384-10.412,0.888-16.14
				c-2.732-6.276-9.664-10.272-20.052-11.568c-0.436-0.056-0.884-0.092-1.324-0.128l-3.348-0.072l-0.58,0.04
				c-0.448,0.028-0.9,0.06-1.34,0.108c-10.412,1.14-17.404,5.036-20.232,11.272c-2.584,5.7-1.076,11.928,0.644,16.152
				c1.064,2.604,2.408,5.064,3.704,7.44c1.068,1.952,2.168,3.968,3.072,5.996c2.492,5.624,3.556,11.86,3.24,18.116
				c-2.392,0.664-2.408,1.644-2.412,2.636l1.104,16.3c-0.004,0.24,0.016,0.76,0.188,1.328l-7.684,102.9l-0.092,0.132l0.016,1.356
				l0.612,0.944c2.752,3.896,17.972,4.092,20.996,4.092c3.024,0,18.244-0.196,21.132-4.32l0.492-0.716l-7.784-104.444h-0.452
				c0.036-0.268,0.052-0.504,0.048-0.616l1.716-16.872c0.012-1.612-1.36-2.312-3.04-2.688c-0.2-6.208,0.96-12.368,3.516-17.912
				C197.248,54.173,198.384,52.169,199.48,50.233z M198.276,197.493c-1.416,0.884-7.428,2.304-17.58,2.304
				c-10.624,0-16.716-1.552-17.584-2.172l7.564-101.268c0.092-0.004,0.18-0.004,0.276-0.012c0.448-0.028,1.004-0.056,1.6-0.052
				l15.988,0.116c0.752,0.004,1.34,0.088,1.788,0.148c0.148,0.02,0.316,0.024,0.476,0.04L198.276,197.493z M169.6,77.765
				c4.056-0.796,18.056-0.696,22.144,0.156l-1.492,14.628c-0.468-0.056-1.024-0.1-1.68-0.108l-15.988-0.12c-0.052,0-0.1,0-0.152,0
				c-0.656,0-1.224,0.032-1.708,0.06c-0.044,0-0.088,0.004-0.132,0.008L169.6,77.765z M192.716,54.529
				c-2.728,5.912-4.064,12.452-3.948,19.06c-0.996-0.084-2.072-0.156-3.244-0.208l3.132-22c0.088-0.62-0.34-1.196-0.96-1.284
				c-0.668-0.096-1.196,0.348-1.28,0.964l-3.156,22.18c-0.004,0.02,0.016,0.036,0.016,0.06c-0.692-0.02-1.4-0.028-2.12-0.036
				l0.196-25.512c0.004-0.624-0.496-1.136-1.124-1.144c-0.004,0-0.004,0-0.008,0c-0.62,0-1.128,0.5-1.132,1.128l-0.196,25.512
				c-0.94,0-1.82,0.004-2.632,0.02c0-0.02,0.02-0.036,0.016-0.056l-2.304-22.22c-0.068-0.62-0.632-1.092-1.248-1.008
				c-0.62,0.064-1.076,0.62-1.012,1.244L174,73.337c-0.72,0.032-1.388,0.072-1.992,0.12c0.216-6.6-1.02-13.156-3.656-19.108
				c-0.964-2.176-2.104-4.268-3.212-6.288c-1.304-2.384-2.536-4.636-3.512-7.032c-1.164-2.868-2.808-8.368-0.704-13.016
				c2.796-6.172,10.812-8.284,17.048-8.964c0.388-0.044,0.776-0.068,1.164-0.092l0.452-0.036l2.9,0.064
				c0.38,0.032,0.76,0.06,1.144,0.108c6.224,0.772,14.204,3,16.908,9.212c2.036,4.672,0.308,10.156-0.904,13.004
				c-1.008,2.376-2.268,4.608-3.608,6.968C194.892,50.285,193.716,52.361,192.716,54.529z"/>
        </symbol>

        <symbol id="eye" viewBox="0 0 266.484 266.484">
            <path d="M117.863,177.846c-0.36-1.084-0.312-2.228,0.132-3.212c0.42-0.932,1.152-1.608,2.064-1.912
				c0.452-0.148,0.924-0.2,1.42-0.144l4.472,0.52l-2.612-3.668c-3.112-4.376-8.316-6.616-13.552-5.844
				c-3.748,0.548-7.056,2.516-9.316,5.552c-2.26,3.036-3.208,6.768-2.66,10.512c0.548,3.744,2.52,7.052,5.556,9.316
				c2.472,1.844,5.412,2.812,8.436,2.812c0.688,0,1.384-0.052,2.076-0.152c4.772-0.696,8.824-3.752,10.836-8.168l1.704-3.74
				l-3.996,0.968C120.555,181.127,118.543,179.895,117.863,177.846z M113.295,187.667c-2.66,0.388-5.364-0.284-7.544-1.912
				c-2.18-1.624-3.592-4-3.984-6.684c-0.396-2.688,0.28-5.368,1.908-7.544c1.628-2.176,4-3.592,6.688-3.988
				c0.484-0.072,0.968-0.104,1.452-0.104c2.132,0,4.196,0.684,5.916,1.932c-1.484,0.768-2.66,2.016-3.384,3.612
				c-0.864,1.908-0.964,4.08-0.284,6.124c0.868,2.616,2.912,4.548,5.3,5.312C117.799,186.159,115.671,187.323,113.295,187.667z"/>
            <path d="M203.427,136.711c1.284-1.14,2.896-2.572,4.908-4.364l8.552-7.596l-32.304,7.588c-1.108,0.26-2.688,0.608-4.2,0.936
				l5.328-8.584l-3.764,0.152c-3.008,0.12-72.644,1.308-94.732,9.28c-21.804,7.872-67.416,41.092-69.092,54.94
				c-0.412,0.512-0.28,3.672-0.28,3.672c0.008,0.008,0.124,0.088,0.2,0.14c0,0,29.24,19.4,59.66,25.552
				c0.132,0.028,0.264,0.04,0.4,0.04c0.92,0,1.752-0.652,1.94-1.592c0.216-1.076-0.476-2.12-1.552-2.336
				c-27.676-5.596-49.968-19.416-56.412-23.708c22.94-16.884,39.064-26.284,53.18-31.624c-3.788,7.452-5.216,15.86-3.988,24.3
				c1.58,10.808,7.268,20.352,16.028,26.88c7.132,5.32,15.608,8.116,24.348,8.116c1.988,0,3.988-0.144,5.988-0.436
				c10.808-1.576,20.356-7.268,26.884-16.024s9.252-19.532,7.68-30.34c-0.756-5.184-2.536-10.036-5.076-14.44
				c14.736,2.532,30.592,4.772,44.252,2.736c3.548,2.044,6.296,3.784,7.888,4.844c-4.296,5.188-18.88,21.756-40.004,34.74
				c-0.932,0.576-1.228,1.796-0.652,2.732c0.576,0.936,1.8,1.216,2.732,0.652c25.908-15.924,42.36-37.88,43.02-38.748
				c0,0-3.06-2.672-7.22-5.38c11.928-3.092,21.592-10.296,26.368-24.776l1.372-4.152l-4.04,1.68
				C217.411,133.007,209.891,135.414,203.427,136.711z M148.271,172.279c0.156,1.052,0.24,2.104,0.304,3.156l-19.536,0.168
				c-0.628,0.004-1.132,0.516-1.124,1.144c0.004,0.624,0.512,1.124,1.132,1.124c0.004,0,0.008,0,0.008,0l19.564-0.168
				c-0.004,4.2-0.684,8.336-2.08,12.256l-17.976-7.188c-0.592-0.236-1.24,0.048-1.476,0.632c-0.232,0.584,0.052,1.244,0.632,1.476
				l17.96,7.18c-1.14,2.664-2.564,5.228-4.34,7.612c-0.712,0.956-1.468,1.864-2.256,2.736l-13.484-13.26
				c-0.452-0.44-1.168-0.436-1.604,0.012c-0.436,0.448-0.432,1.164,0.012,1.604l13.48,13.256c-3.412,3.34-7.4,5.952-11.792,7.736
				l-6.764-18.576c-0.216-0.584-0.872-0.888-1.452-0.676c-0.588,0.216-0.896,0.864-0.68,1.456l6.776,18.604
				c-2.096,0.704-4.264,1.248-6.5,1.576c-1.784,0.26-3.56,0.344-5.332,0.348l-0.168-19.608c-0.004-0.624-0.512-1.124-1.132-1.124
				c-0.004,0-0.008,0-0.008,0c-0.628,0.004-1.132,0.516-1.124,1.144l0.168,19.552c-3.968-0.236-7.836-1.14-11.512-2.624
				l7.132-17.836c0.232-0.584-0.052-1.244-0.632-1.476c-0.588-0.228-1.244,0.048-1.476,0.632l-7.116,17.8
				c-2.156-1.032-4.232-2.28-6.192-3.74c-1.264-0.944-2.432-1.98-3.552-3.056l13.488-13.72c0.436-0.448,0.432-1.164-0.016-1.604
				c-0.444-0.44-1.164-0.436-1.6,0.012l-13.472,13.704c-2.792-3.036-5.016-6.508-6.644-10.276l17.616-7.552
				c0.58-0.248,0.844-0.916,0.596-1.492c-0.248-0.576-0.92-0.844-1.488-0.596l-17.588,7.54c-0.836-2.32-1.448-4.74-1.812-7.236
				c-0.224-1.536-0.32-3.072-0.352-4.6l19.488-0.168c0.628-0.004,1.132-0.516,1.124-1.144c-0.004-0.624-0.512-1.124-1.132-1.124
				c-0.004,0-0.008,0-0.008,0l-19.468,0.168c0.156-3.916,0.936-7.752,2.304-11.4l18.324,7.324c0.14,0.056,0.28,0.084,0.42,0.084
				c0.448,0,0.876-0.268,1.056-0.712c0.232-0.584-0.052-1.244-0.632-1.476l-18.292-7.312c0.828-1.848,1.824-3.632,2.964-5.348
				c2.348-0.736,4.66-1.36,6.952-1.9l11.292,11.1c0.224,0.216,0.512,0.328,0.796,0.328c0.292,0,0.584-0.112,0.808-0.34
				c0.436-0.448,0.432-1.164-0.012-1.604l-10.244-10.072c2.78-0.576,5.552-1.044,8.356-1.404l4.732,9.204
				c0.2,0.392,0.596,0.616,1.008,0.616c0.176,0,0.352-0.04,0.52-0.128c0.556-0.284,0.772-0.968,0.488-1.528l-4.344-8.444
				c2.004-0.22,4.024-0.42,6.088-0.568c6.612-0.488,14.944,0.564,24.004,2.06l-9.872,9.516c-0.452,0.436-0.464,1.152-0.032,1.604
				c0.224,0.232,0.52,0.348,0.816,0.348c0.284,0,0.568-0.104,0.784-0.32l11.08-10.68c2.24,0.384,4.504,0.78,6.808,1.184
				c0.272,0.048,0.548,0.096,0.816,0.144c1.076,1.524,2.02,3.132,2.856,4.804l-18.2,7.804c-0.58,0.248-0.844,0.916-0.596,1.492
				c0.184,0.428,0.604,0.688,1.044,0.688c0.148,0,0.3-0.028,0.444-0.092l18.32-7.856
				C146.939,166.055,147.807,169.102,148.271,172.279z M141.723,152.255c-12.952-2.288-25.188-4.444-34.572-3.76
				c-27.9,2.028-47.924,10.524-82.792,35.708c9.352-14.044,44.732-40.948,63.828-47.22c22.324-7.332,74.88-7.276,90.136-7.976
				l-6.284,10.128l4.576-0.96c0,0,6-1.26,8.88-1.936l16.924-3.976c-2.888,2.572-15.116,9.724-15.116,9.724l9.852-0.4
				c5.808-0.236,14.9-2.684,20.992-4.748C206.115,163.611,171.987,157.599,141.723,152.255z"/>
            <path d="M254.403,55.503c-1.34-0.576-2.832-0.592-4.204-0.048c-1.364,0.544-2.432,1.584-3.012,2.928
				c-0.568,1.32-0.584,2.78-0.06,4.104c0.536,1.34,1.568,2.392,2.912,2.956c0.68,0.288,1.4,0.432,2.116,0.432
				c0.692,0,1.384-0.132,2.048-0.396c2.792-1.112,4.172-4.268,3.072-7.036C256.743,57.115,255.723,56.07,254.403,55.503z
				 M253.359,63.375c-0.788,0.316-1.66,0.312-2.44-0.02c-0.776-0.328-1.376-0.932-1.68-1.708c-0.308-0.764-0.296-1.604,0.032-2.368
				c0.34-0.788,0.968-1.4,1.772-1.72c0.392-0.156,0.796-0.236,1.204-0.236c0.428,0,0.856,0.088,1.26,0.26
				c0.76,0.328,1.352,0.932,1.656,1.696C255.807,60.887,254.995,62.723,253.359,63.375z"/>
            <path d="M265.683,55.087c-1.12-2.812-3.292-5.012-6.112-6.2c-2.804-1.184-5.92-1.212-8.828-0.052l-70.54,31.672
				c-1.536-0.932-3.068-1.9-4.624-2.748c-6.144-3.252-11.984-5.704-17.868-7.488c-7.868-2.34-15.244-3.384-22.736-3.228
				l-1.508,0.064c-1.724,0.068-3.504,0.14-4.704,0.36l-6.044,0.952c-3.86,0.8-7.764,1.98-11.928,3.604
				c-7.156,2.724-13.284,5.928-19.776,9.32l-1.196,0.624c-6.34,3.432-12.888,7.372-19.48,11.728
				c-0.44,0.3-48.424,34.224-56.752,42.612c-0.796,0.804-1.612,1.592-2.428,2.384c-2.956,2.856-6.016,5.816-8.236,9.492
				c-2.716,4.504-4.396,11.28-1.116,16.488l1.74,3.484l1.78-1.24c0,0,3.12-2.172,8.348-6.068l10.52-7.676
				c3.304-2.412,6.952-5.072,10.952-7.876c4.404-3.16,9.232-6.476,14.316-9.94c5.228-3.544,10.656-7.112,16.152-10.604
				c4.896-3.148,10.016-6.236,15.208-9.364l6.872-4.016c4.492-2.592,9.136-5.276,13.856-7.732
				c6.072-3.304,12.504-6.728,18.368-9.392c3.184-1.388,5.96-2.444,8.456-3.22l4.364-1.048c1.104-0.268,1.876-0.372,2.616-0.48
				c0.504-0.072,0.996-0.14,1.444-0.228c5.104-0.692,10.912-0.664,16.796,0.084c0.912,0.112,1.884,0.292,2.824,0.44l-7.588,2.488
				c-0.272,0.108-1.812,0.732-2.264,0.916l-7.848,1.672c0,0-10.352,1.988-15.772,4.152c-11.836,4.724-19.14,13.348-16.632,19.64
				c1.296,3.248,4.848,5.248,9.992,5.624c0.588,0.044,1.196,0.064,1.812,0.064c4.236,0,9.056-1.004,13.78-2.892
				c5.412-2.16,14.296-7.844,14.296-7.844l6.628-4.08c0.56-0.224,2.32-0.932,2.56-1.028l12.456-5.712
				c0.652-0.26,1.36-0.632,1.652-1.416c0.008-0.016,0.004-0.032,0.008-0.048l13.552-4.752c0.184,0.06,0.384,0.12,0.564,0.18
				l10.956,3.672c1.888,0.692,3.572,1.232,4.972,1.684c0.852,0.276,1.596,0.512,2.288,0.756l10.424,3.252l-5.868-5.76
				c-0.112-0.108-2.808-2.748-7.872-6.92l-0.084-0.072c-0.592-0.48-1.232-0.996-1.892-1.528l62.676-21.976
				c2.832-1.132,5.068-3.292,6.292-6.084C266.747,60.987,266.807,57.895,265.683,55.087z M154.083,85.426
				c-6.208-0.792-12.372-0.824-17.916-0.068c-0.488,0.092-0.92,0.152-1.364,0.212c-0.848,0.12-1.736,0.244-2.956,0.54
				c0,0-9.22,2.292-13.544,4.512c-5.868,3.016-12.516,6.192-18.616,9.512c-4.76,2.476-9.448,5.18-13.976,7.8l-6.936,4.056
				c-5.224,3.148-10.376,6.252-15.296,9.416c-5.516,3.508-10.98,7.096-16.244,10.664c-5.12,3.488-9.972,6.82-14.384,9.988
				c-4,2.808-7.672,5.484-10.996,7.904l-10.532,7.688c-2.752,2.048-4.912,3.612-6.328,4.632c-2.004-3.916-0.584-8.88,1.328-12.052
				c1.948-3.232,4.692-5.88,7.592-8.684c0.836-0.812,1.672-1.62,2.492-2.444c7.712-7.776,53.764-40.492,56.136-42.108
				c6.476-4.276,12.924-8.16,19.136-11.52l1.168-0.612c6.388-3.336,12.416-6.488,19.368-9.136c3.972-1.548,7.668-2.668,11.292-3.416
				l5.872-0.92c1.02-0.188,2.736-0.252,4.244-0.312l1.5-0.064c0.472-0.012,0.948-0.016,1.424-0.016c6.504,0,13.072,1.012,20.02,3.08
				c5.624,1.708,11.236,4.06,17.128,7.184c0.708,0.384,1.404,0.82,2.104,1.228l-10.82,4.86
				C161.095,86.482,157.523,85.842,154.083,85.426z M163.271,92.331l-3.968-0.5l2.936-0.964c0.172,0.036,0.344,0.072,0.512,0.108
				c0.036,0.112,0.068,0.216,0.116,0.34L163.271,92.331z M155.159,93.19c0.056,0.016,8.744,1.044,8.856,0.996l0.756,1.892
				l-13.512-1.612L155.159,93.19z M130.419,117.751c-4.868,1.94-9.792,2.852-13.816,2.552c-3.484-0.256-5.88-1.392-6.568-3.116
				c-1.416-3.548,4.148-10.352,14.4-14.444c5.776-2.304,10.944-2.864,14.704-2.356l3.584,8.984
				C140.331,112.319,136.171,115.455,130.419,117.751z M151.567,107.015l-5.412,3.312l-5.2-13.032l6.432-1.388
				c0.168-0.064,0.336-0.04,0.508-0.04c0.248,1.292,0.752,3.024,1.752,5.532c0.74,1.844,1.532,3.528,2.236,4.748
				c0.08,0.14,0.196,0.32,0.3,0.492C152.027,106.775,151.831,106.903,151.567,107.015z M154.891,105.622
				c-0.212-0.276-0.46-0.692-0.72-1.164l2.764,0.228L154.891,105.622z M160.355,103.119c-0.076-0.024-6.924-0.544-7.08-0.464
				c-0.344-0.752-0.692-1.544-1.02-2.368l11.644,1.208L160.355,103.119z M151.587,98.503c-0.276-0.772-0.5-1.488-0.684-2.136
				c0,0,14.492,1.612,14.604,1.564l0.66,1.652c0.032,0.08,0.064,0.136,0.096,0.212C166.263,99.799,151.755,98.406,151.587,98.503z
				 M195.891,96.69l-6.72-2.252l2.912-1.02c1.404,1.088,2.736,2.136,3.86,3.044l0.072,0.056c0.156,0.128,0.308,0.256,0.46,0.384
				C196.283,96.835,196.087,96.763,195.891,96.69z M261.883,62.199c-0.804,1.832-2.268,3.248-4.048,3.96l-89.44,31.36l-2.492-6.244
				l86.384-38.784c0.912-0.364,1.86-0.544,2.808-0.544c0.996,0,1.988,0.2,2.932,0.596c1.832,0.772,3.244,2.196,3.964,4.012v0.004
				C262.723,58.375,262.679,60.375,261.883,62.199z"/>
        </symbol>

        <symbol id="facebook" viewBox="0 0 24 24">
            <path d="m15.997 3.985h2.191v-3.816c-.378-.052-1.678-.169-3.192-.169-3.159 0-5.323 1.987-5.323 5.639v3.361h-3.486v4.266h3.486v10.734h4.274v-10.733h3.345l.531-4.266h-3.877v-2.939c.001-1.233.333-2.077 2.051-2.077z"></path>
        </symbol>

        <symbol id="instagram" viewBox="0 0 384 384">
            <path d="m304 0h-224c-44.113281 0-80 35.886719-80 80v224c0 44.113281 35.886719 80 80 80h224c44.113281 0 80-35.886719 80-80v-224c0-44.113281-35.886719-80-80-80zm48 304c0 26.472656-21.527344 48-48 48h-224c-26.472656 0-48-21.527344-48-48v-224c0-26.472656 21.527344-48 48-48h224c26.472656 0 48 21.527344 48 48zm0 0"/><path d="m192 88c-57.34375 0-104 46.65625-104 104s46.65625 104 104 104 104-46.65625 104-104-46.65625-104-104-104zm0 176c-39.695312 0-72-32.304688-72-72s32.304688-72 72-72 72 32.304688 72 72-32.304688 72-72 72zm0 0"/><path d="m304 56c-13.230469 0-24 10.769531-24 24s10.769531 24 24 24 24-10.769531 24-24-10.769531-24-24-24zm0 0"></path>
        </symbol>

        <symbol id="twitter" viewBox="0 0 512 512">
            <path d="M512,97.248c-19.04,8.352-39.328,13.888-60.48,16.576c21.76-12.992,38.368-33.408,46.176-58.016
			c-20.288,12.096-42.688,20.64-66.56,25.408C411.872,60.704,384.416,48,354.464,48c-58.112,0-104.896,47.168-104.896,104.992
			c0,8.32,0.704,16.32,2.432,23.936c-87.264-4.256-164.48-46.08-216.352-109.792c-9.056,15.712-14.368,33.696-14.368,53.056
			c0,36.352,18.72,68.576,46.624,87.232c-16.864-0.32-33.408-5.216-47.424-12.928c0,0.32,0,0.736,0,1.152
			c0,51.008,36.384,93.376,84.096,103.136c-8.544,2.336-17.856,3.456-27.52,3.456c-6.72,0-13.504-0.384-19.872-1.792
			c13.6,41.568,52.192,72.128,98.08,73.12c-35.712,27.936-81.056,44.768-130.144,44.768c-8.608,0-16.864-0.384-25.12-1.44
			C46.496,446.88,101.6,464,161.024,464c193.152,0,298.752-160,298.752-298.688c0-4.64-0.16-9.12-0.384-13.568
			C480.224,136.96,497.728,118.496,512,97.248z"></path>
        </symbol>
    </defs>
</svg>